<?xml version="1.0" encoding="UTF-8"?>
<svg width="233px" height="72px" viewBox="0 0 233 72" version="1.1" xmlns="http://www.w3.org/2000/svg" xmlns:xlink="http://www.w3.org/1999/xlink">
    <!-- Generator: Sketch 43.1 (39012) - http://www.bohemiancoding.com/sketch -->
    <title>logo-hs</title>
    <desc>Created with Sketch.</desc>
    <defs></defs>
    <g id="Landing-Page" stroke="none" stroke-width="1" fill="none" fill-rule="evenodd">
        <g id="Desktop" transform="translate(-396.000000, -124.000000)" fill="#00B781">
            <g id="Group-4" transform="translate(253.000000, 124.000000)">
                <g id="logo-hs" transform="translate(143.000000, 0.000000)">
                    <path d="M5.93152726,42.0016213 L5.9275357,41.9989841 C5.9275357,41.9989841 5.9302761,42.0074855 5.93556249,42.0242691 C6.18215214,43.4053033 6.52082214,44.7623892 6.94193662,46.0801073 C7.51007352,48.8661862 8.10539208,52.8580948 8.10539208,57.3534857 C8.10539208,65.9516824 0.0700928042,71.0028313 0.0700928042,71.0028313 C0.0700928042,71.0028313 11.5687944,72.5781646 20.8596701,67.661854 C30.1505457,62.7455435 38.0385676,63.2147507 38.0385676,63.2147507 L37.9304695,63.1433302 C58.4989212,64.0603026 89.8210747,65.057294 100.777587,52.8955186 C114.552179,37.6056638 106.927894,8.96388081 87.231155,2.89810651 C67.5344157,-3.16766779 37.5922416,0.733387317 16.4390976,15.5639507 C6.80065737,22.3215041 4.2781972,32.7023635 5.93152726,42.0016213 Z M36.0125918,45.7419355 L36.0125918,35.8498065 L26.7863061,35.8498065 L26.7863061,45.7419355 L21.0700204,45.7419355 L21.0700204,22.0810323 L26.7863061,22.0810323 L26.7863061,31.0374194 L36.0125918,31.0374194 L36.0125918,22.0810323 L41.7288776,22.0810323 L41.7288776,45.7419355 L36.0125918,45.7419355 Z M46.609449,45.7419355 L46.609449,22.0810323 L62.521449,22.0810323 L62.521449,26.9268387 L52.1251633,26.9268387 L52.1251633,31.3716129 L61.9531633,31.3716129 L61.9531633,35.9500645 L52.1251633,35.9500645 L52.1251633,40.8627097 L63.1231633,40.8627097 L63.1231633,45.7419355 L46.609449,45.7419355 Z M78.4000204,35.716129 L78.4000204,45.7419355 L72.6837347,45.7419355 L72.6837347,35.716129 L63.7917347,22.0810323 L70.711449,22.0810323 L75.7591633,30.8369032 L80.8068776,22.0810323 L87.4925918,22.0810323 L78.4000204,35.716129 Z M89.9663061,37.8215484 L89.9663061,22.0810323 L95.5823061,22.0810323 L95.5823061,37.8215484 L89.9663061,37.8215484 Z M96.0503061,42.9012903 C96.0503061,43.3468839 95.9667355,43.7646217 95.7995918,44.1545161 C95.6324481,44.5444106 95.3984505,44.8786008 95.0975918,45.1570968 C94.7967332,45.4355928 94.4457367,45.6583863 94.0445918,45.8254839 C93.643447,45.9925815 93.2200226,46.076129 92.7743061,46.076129 C92.3285896,46.076129 91.9107366,45.9981513 91.5207347,45.8421935 C91.1307327,45.6862358 90.790879,45.4634423 90.5011633,45.1738065 C90.2114475,44.8841706 89.9774499,44.5499804 89.7991633,44.1712258 C89.6208767,43.7924712 89.5317347,43.3803033 89.5317347,42.9347097 C89.5317347,42.5113957 89.6153053,42.1047976 89.782449,41.7149032 C89.9495927,41.3250088 90.178019,40.9852488 90.4677347,40.6956129 C90.7574504,40.405977 91.1028755,40.1776137 91.5040204,40.0105161 C91.9051653,39.8434185 92.3285896,39.759871 92.7743061,39.759871 C93.2200226,39.759871 93.643447,39.8434185 94.0445918,40.0105161 C94.4457367,40.1776137 94.7967332,40.4004072 95.0975918,40.6789032 C95.3984505,40.9573992 95.6324481,41.2915894 95.7995918,41.6814839 C95.9667355,42.0713783 96.0503061,42.4779764 96.0503061,42.9012903 Z" id="Rectangle-4"></path>
                    <path d="M126.257796,27.0270968 C125.812079,26.4478251 125.182514,25.9632493 124.369082,25.5733548 C123.555649,25.1834604 122.736657,24.9885161 121.912082,24.9885161 C121.421793,24.9885161 120.931513,25.0497843 120.441224,25.1723226 C119.950936,25.2948608 119.505226,25.4842353 119.104082,25.7404516 C118.702937,25.9966679 118.374226,26.3308582 118.117939,26.7430323 C117.861652,27.1552064 117.73351,27.6509218 117.73351,28.2301935 C117.73351,28.7649059 117.844938,29.2216325 118.067796,29.6003871 C118.290654,29.9791417 118.59708,30.3021922 118.987082,30.5695484 C119.377084,30.8369046 119.85065,31.0708377 120.407796,31.2713548 C120.964942,31.471872 121.577793,31.6723861 122.246367,31.8729032 C123.004085,32.1179797 123.789649,32.3964716 124.603082,32.7083871 C125.416514,33.0203026 126.163078,33.4324706 126.842796,33.9449032 C127.522514,34.4573359 128.079651,35.103437 128.514224,35.8832258 C128.948798,36.6630147 129.166082,37.6321663 129.166082,38.7907097 C129.166082,40.0606515 128.932084,41.169049 128.464082,42.1159355 C127.996079,43.0628219 127.372086,43.8481689 126.592082,44.472 C125.812078,45.0958311 124.898373,45.5636974 123.850939,45.8756129 C122.803505,46.1875284 121.700373,46.3434839 120.54151,46.3434839 C119.003788,46.3434839 117.499518,46.0594222 116.028653,45.4912903 C114.557789,44.9231584 113.354372,44.0821131 112.418367,42.968129 L115.426939,40.1609032 C116.00637,40.9629718 116.780791,41.5979331 117.750224,42.0658065 C118.719658,42.5336798 119.672363,42.7676129 120.608367,42.7676129 C121.098656,42.7676129 121.600079,42.7063447 122.112653,42.5838065 C122.625227,42.4612682 123.087651,42.2551842 123.499939,41.9655484 C123.912227,41.6759125 124.246509,41.3138731 124.502796,40.8794194 C124.759083,40.4449656 124.887224,39.9046914 124.887224,39.2585806 C124.887224,38.6347496 124.742369,38.1167547 124.452653,37.7045806 C124.162937,37.2924065 123.772941,36.935937 123.282653,36.6351613 C122.792365,36.3343856 122.212942,36.0726033 121.544367,35.8498065 L119.438367,35.148 C118.725221,34.9252032 118.012085,34.657851 117.298939,34.3459355 C116.585792,34.0340199 115.945084,33.621852 115.376796,33.1094194 C114.808507,32.5969867 114.346083,31.9675951 113.98951,31.2212258 C113.632937,30.4748565 113.454653,29.5446937 113.454653,28.4307097 C113.454653,27.2276069 113.705365,26.1916172 114.206796,25.3227097 C114.708227,24.4538021 115.365649,23.7352932 116.179082,23.1671613 C116.992514,22.5990294 117.917362,22.1757218 118.953653,21.8972258 C119.989944,21.6187298 121.042933,21.4794839 122.112653,21.4794839 C123.316088,21.4794839 124.536218,21.6911377 125.773082,22.1144516 C127.009945,22.5377656 128.08522,23.1727269 128.998939,24.0193548 L126.257796,27.0270968 Z M159.348367,45.7419355 L145.074367,45.7419355 C143.180072,45.7419355 141.458518,45.4690135 139.909653,44.9231613 C138.360788,44.3773091 137.034801,43.5863923 135.931653,42.5503871 C134.828505,41.5143819 133.976085,40.2444591 133.374367,38.7405806 C132.77265,37.2367022 132.471796,35.5267623 132.471796,33.6107097 C132.471796,31.8060555 132.789364,30.1629536 133.42451,28.6813548 C134.059656,27.199756 134.945504,25.9242634 136.082082,24.8548387 C137.218659,23.785414 138.56136,22.9555083 140.110224,22.3650968 C141.659089,21.7746852 143.336073,21.4794839 145.141224,21.4794839 C146.946376,21.4794839 148.617788,21.7746852 150.15551,22.3650968 C151.693232,22.9555083 153.02479,23.785414 154.150224,24.8548387 C155.275659,25.9242634 156.150364,27.199756 156.774367,28.6813548 C157.39837,30.1629536 157.710367,31.8060555 157.710367,33.6107097 C157.710367,34.6801344 157.587797,35.6604257 157.342653,36.5516129 C157.097509,37.4428002 156.779941,38.2504265 156.389939,38.9745161 C155.999937,39.6986058 155.554227,40.3335672 155.052796,40.8794194 C154.551365,41.4252715 154.033227,41.887568 153.498367,42.2663226 L153.498367,42.3331613 L159.348367,42.3331613 L159.348367,45.7419355 Z M145.141224,25.255871 C144.004647,25.255871 142.940515,25.4675248 141.948796,25.8908387 C140.957077,26.3141527 140.104657,26.8934157 139.39151,27.6286452 C138.678364,28.3638746 138.115655,29.2439089 137.703367,30.2687742 C137.29108,31.2936395 137.084939,32.4076069 137.084939,33.6107097 C137.084939,34.8806515 137.279937,36.0336077 137.669939,37.0696129 C138.059941,38.1056181 138.605935,38.9912221 139.307939,39.7264516 C140.009942,40.4616811 140.85122,41.0353743 141.831796,41.4475484 C142.812372,41.8597225 143.893219,42.0658065 145.074367,42.0658065 C146.23323,42.0658065 147.308505,41.8597225 148.300224,41.4475484 C149.291944,41.0353743 150.144364,40.4616811 150.85751,39.7264516 C151.570657,38.9912221 152.127794,38.1056181 152.528939,37.0696129 C152.930084,36.0336077 153.130653,34.8806515 153.130653,33.6107097 C153.130653,32.4076069 152.941226,31.2936395 152.562367,30.2687742 C152.183508,29.2439089 151.643085,28.3638746 150.941082,27.6286452 C150.239078,26.8934157 149.397801,26.3141527 148.417224,25.8908387 C147.436648,25.4675248 146.344659,25.255871 145.141224,25.255871 Z M181.64151,37.0529032 C181.64151,38.4788028 181.39637,39.7654351 180.906082,40.9128387 C180.415793,42.0602423 179.747229,43.0349637 178.900367,43.8370323 C178.053506,44.6391008 177.050659,45.2573527 175.891796,45.6918065 C174.732933,46.1262602 173.473803,46.3434839 172.114367,46.3434839 C170.754932,46.3434839 169.495802,46.1262602 168.336939,45.6918065 C167.178076,45.2573527 166.169657,44.6391008 165.311653,43.8370323 C164.453649,43.0349637 163.785084,42.0602423 163.305939,40.9128387 C162.826793,39.7654351 162.587224,38.4788028 162.587224,37.0529032 L162.587224,22.0810323 L166.799224,22.0810323 L166.799224,36.8858065 C166.799224,37.5764766 166.888366,38.2615665 167.066653,38.9410968 C167.24494,39.6206271 167.540222,40.2277393 167.95251,40.7624516 C168.364798,41.297164 168.910792,41.7316112 169.59051,42.0658065 C170.270228,42.4000017 171.111505,42.5670968 172.114367,42.5670968 C173.117229,42.5670968 173.958507,42.4000017 174.638224,42.0658065 C175.317942,41.7316112 175.863937,41.297164 176.276224,40.7624516 C176.688512,40.2277393 176.983795,39.6206271 177.162082,38.9410968 C177.340368,38.2615665 177.42951,37.5764766 177.42951,36.8858065 L177.42951,22.0810323 L181.64151,22.0810323 L181.64151,37.0529032 Z M194.073224,22.0810323 L197.716939,22.0810323 L207.912653,45.7419355 L203.098939,45.7419355 L200.892653,40.328 L190.630082,40.328 L188.490653,45.7419355 L183.777224,45.7419355 L194.073224,22.0810323 Z M199.421796,36.7187097 L195.778082,27.0939355 L192.06751,36.7187097 L199.421796,36.7187097 Z M210.716939,22.0810323 L219.10751,22.0810323 C220.645232,22.0810323 222.194074,22.2815464 223.754082,22.6825806 C225.314089,23.0836149 226.718075,23.7464255 227.966082,24.6710323 C229.214088,25.595639 230.228078,26.8098634 231.008082,28.3137419 C231.788085,29.8176204 232.178082,31.6835157 232.178082,33.9114839 C232.178082,35.9834942 231.788085,37.765842 231.008082,39.2585806 C230.228078,40.7513193 229.214088,41.9766834 227.966082,42.9347097 C226.718075,43.892736 225.314089,44.6001052 223.754082,45.0568387 C222.194074,45.5135722 220.645232,45.7419355 219.10751,45.7419355 L210.716939,45.7419355 L210.716939,22.0810323 Z M218.438939,42.0658065 C219.530944,42.0658065 220.622933,41.9377002 221.714939,41.6814839 C222.806944,41.4252675 223.793077,40.9908203 224.673367,40.378129 C225.553657,39.7654378 226.272364,38.9355321 226.82951,37.8883871 C227.386656,36.8412421 227.665224,35.5156209 227.665224,33.9114839 C227.665224,32.2182281 227.386656,30.8369086 226.82951,29.7674839 C226.272364,28.6980592 225.553657,27.8625837 224.673367,27.2610323 C223.793077,26.6594809 222.806944,26.2473129 221.714939,26.0245161 C220.622933,25.8017193 219.530944,25.6903226 218.438939,25.6903226 L214.928939,25.6903226 L214.928939,42.0658065 L218.438939,42.0658065 Z" id="SQUAD"></path>
                </g>
            </g>
        </g>
    </g>
</svg>